<?xml version="1.0" encoding="utf-8"?>
<!-- Generator: Adobe Illustrator 25.2.3, SVG Export Plug-In . SVG Version: 6.00 Build 0)  -->
<svg version="1.1" id="Layer_1" xmlns="http://www.w3.org/2000/svg" xmlns:xlink="http://www.w3.org/1999/xlink" x="0px" y="0px"
	 viewBox="0 0 370 374.56" style="enable-background:new 0 0 370 374.56;" xml:space="preserve">
<style type="text/css">
	.st0{fill:#F9D714;}
</style>
<g>
	<g id="XMLID_1_">
		<g>
			<path class="st0" d="M333.38,142.41c8.11,1.17,12.68,6.08,11.24,13.05c-0.57,2.75-2.51,5.57-4.58,7.61
				c-18.69,18.45-37.37,36.94-56.45,54.99c-8.89,8.4-11.56,17.81-9.34,29.71c4.84,25.9,8.99,51.93,13.49,77.89
				c0.85,4.91-0.15,9.07-4.23,12.06c-4.25,3.1-8.65,2.45-13.09,0.11c-24.01-12.66-48-25.36-72.1-37.83
				c-4.03-2.09-8.6-3.13-13.21-4.76c-4.59,1.59-9.17,2.58-13.2,4.66c-24.01,12.41-47.86,25.13-71.85,37.58
				c-2.51,1.3-5.6,2.33-8.33,2.15c-6.47-0.43-10.57-6.07-9.51-12.75c2.08-13.18,4.41-26.32,6.66-39.48
				c2.53-14.83,5.23-29.63,7.59-44.48c1.43-9.04-1.67-16.62-8.24-22.99c-19.43-18.84-38.82-37.72-58.1-56.72
				c-2.07-2.05-4.07-4.8-4.7-7.55c-1.56-6.7,2.73-11.89,10.36-13.07c11.51-1.79,23.05-3.37,34.59-5.03
				c16.01-2.31,32.03-4.53,48.02-6.97c9.32-1.42,15.72-6.77,19.86-15.23c11.91-24.38,23.97-48.69,35.98-73.02
				c3.19-6.44,7.65-8.87,13.52-7.49c4.17,0.99,6.33,4.04,8.09,7.61c11.79,23.93,23.74,47.8,35.35,71.82
				c4.75,9.82,12.01,15.23,22.91,16.71C280.56,134.56,306.96,138.58,333.38,142.41z"/>
			<path d="M358.99,149.79c0,2.49,0,4.98,0,7.48c-1.58,7.82-6.5,13.39-12.06,18.74c-18.2,17.51-36.12,35.3-54.34,52.79
				c-4.46,4.28-5.98,8.84-4.9,14.9c4.73,26.61,9.22,53.27,13.8,79.91c1.77,10.29-1.15,18.96-9.58,25.19
				c-8.41,6.22-17.62,6.69-26.88,1.86c-24.16-12.6-48.31-25.24-72.35-38.08c-5.35-2.85-10.01-2.83-15.34,0.02
				c-23.85,12.73-47.79,25.27-71.76,37.76c-13.85,7.21-29.1,2.3-35.33-11.19c-2.26-4.89-2.66-10.02-1.76-15.27
				c4.6-26.75,9.12-53.52,13.87-80.25c1.08-6.07-0.48-10.61-4.93-14.89c-19.34-18.6-38.5-37.39-57.7-56.15
				c-8.59-8.4-10.96-18.67-6.55-28.76c3.86-8.85,10.89-13.64,20.31-15.01c27.09-3.94,54.18-7.87,81.29-11.72
				c5.28-0.75,8.8-3.35,11.16-8.18c11.9-24.39,24-48.68,35.97-73.04c4.57-9.3,11.68-14.93,22.23-15.25
				c10.97-0.33,18.81,4.88,23.65,14.59c6.97,13.96,13.82,27.98,20.73,41.97c5.2,10.55,10.53,21.03,15.55,31.66
				c2.44,5.16,6.27,7.56,11.8,8.33c27,3.79,53.99,7.64,80.95,11.7c11.42,1.72,18.78,8.33,21.57,19.72
				C358.49,149.03,358.78,149.4,358.99,149.79z M344.62,155.46c1.44-6.97-3.13-11.88-11.24-13.05
				c-26.42-3.83-52.82-7.85-79.27-11.42c-10.9-1.48-18.16-6.89-22.91-16.71c-11.61-24.02-23.56-47.89-35.35-71.82
				c-1.76-3.57-3.92-6.62-8.09-7.61c-5.87-1.38-10.33,1.05-13.52,7.49c-12.01,24.33-24.07,48.64-35.98,73.02
				c-4.14,8.46-10.54,13.81-19.86,15.23c-15.99,2.44-32.01,4.66-48.02,6.97c-11.54,1.66-23.08,3.24-34.59,5.03
				c-7.63,1.18-11.92,6.37-10.36,13.07c0.63,2.75,2.63,5.5,4.7,7.55c19.28,19,38.67,37.88,58.1,56.72
				c6.57,6.37,9.67,13.95,8.24,22.99c-2.36,14.85-5.06,29.65-7.59,44.48c-2.25,13.16-4.58,26.3-6.66,39.48
				c-1.06,6.68,3.04,12.32,9.51,12.75c2.73,0.18,5.82-0.85,8.33-2.15c23.99-12.45,47.84-25.17,71.85-37.58
				c4.03-2.08,8.61-3.07,13.2-4.66c4.61,1.63,9.18,2.67,13.21,4.76c24.1,12.47,48.09,25.17,72.1,37.83
				c4.44,2.34,8.84,2.99,13.09-0.11c4.08-2.99,5.08-7.15,4.23-12.06c-4.5-25.96-8.65-51.99-13.49-77.89
				c-2.22-11.9,0.45-21.31,9.34-29.71c19.08-18.05,37.76-36.54,56.45-54.99C342.11,161.03,344.05,158.21,344.62,155.46z"/>
		</g>
		<g>
		</g>
	</g>
</g>
<g id="Layer_2">
</g>
</svg>
