<?xml version="1.0" encoding="utf-8"?>
<!-- Generator: Adobe Illustrator 25.2.3, SVG Export Plug-In . SVG Version: 6.00 Build 0)  -->
<svg version="1.1" id="Layer_1" xmlns="http://www.w3.org/2000/svg" xmlns:xlink="http://www.w3.org/1999/xlink" x="0px" y="0px"
	 viewBox="0 0 370 374.56" style="enable-background:new 0 0 370 374.56;" xml:space="preserve">
<g>
	<path d="M358.99,157.27c-1.58,7.82-6.5,13.39-12.06,18.75c-18.2,17.51-36.12,35.3-54.34,52.79c-4.46,4.28-5.98,8.83-4.9,14.9
		c4.73,26.61,9.22,53.27,13.8,79.91c1.77,10.29-1.15,18.96-9.58,25.19c-8.41,6.22-17.62,6.69-26.87,1.86
		c-24.17-12.6-48.32-25.24-72.36-38.08c-5.34-2.85-10-2.83-15.34,0.02c-23.84,12.73-47.79,25.27-71.76,37.76
		c-13.84,7.22-29.1,2.3-35.33-11.19c-2.26-4.89-2.66-10.01-1.76-15.27c4.6-26.75,9.12-53.52,13.87-80.24
		c1.08-6.07-0.49-10.62-4.93-14.89c-19.35-18.6-38.51-37.4-57.7-56.16c-8.59-8.4-10.96-18.67-6.55-28.75
		c3.86-8.85,10.89-13.64,20.31-15.01c27.09-3.95,54.18-7.87,81.29-11.72c5.29-0.75,8.8-3.35,11.16-8.18
		c11.91-24.39,24-48.68,35.97-73.04c4.57-9.3,11.69-14.93,22.24-15.25c10.96-0.33,18.81,4.88,23.65,14.58
		c6.97,13.96,13.82,27.98,20.72,41.98c5.2,10.55,10.54,21.03,15.56,31.66c2.44,5.16,6.27,7.55,11.8,8.33
		c27,3.78,53.99,7.64,80.95,11.7c11.42,1.72,18.78,8.33,21.57,19.72c0.1,0.42,0.39,0.78,0.6,1.17
		C358.99,152.29,358.99,154.78,358.99,157.27z M185.11,295.24c4.62,1.63,9.18,2.67,13.21,4.76c24.1,12.47,48.09,25.17,72.1,37.84
		c4.44,2.34,8.84,2.99,13.09-0.12c4.08-2.99,5.08-7.15,4.23-12.06c-4.51-25.96-8.66-51.99-13.49-77.89
		c-2.22-11.89,0.45-21.3,9.34-29.71c19.08-18.05,37.76-36.53,56.46-54.99c2.06-2.04,4-4.86,4.57-7.61
		c1.44-6.97-3.13-11.88-11.24-13.05c-26.42-3.83-52.82-7.85-79.27-11.42c-10.89-1.47-18.15-6.88-22.9-16.71
		c-11.61-24.02-23.56-47.88-35.35-71.82c-1.76-3.57-3.92-6.62-8.09-7.6c-5.87-1.38-10.34,1.04-13.52,7.49
		c-12.02,24.33-24.07,48.64-35.99,73.02c-4.13,8.46-10.53,13.81-19.85,15.23c-15.99,2.44-32.02,4.66-48.03,6.97
		c-11.53,1.67-23.08,3.24-34.59,5.03c-7.63,1.19-11.91,6.38-10.36,13.08c0.64,2.75,2.63,5.5,4.71,7.55
		c19.27,19,38.66,37.88,58.09,56.72c6.57,6.37,9.67,13.95,8.24,22.99c-2.36,14.86-5.06,29.66-7.59,44.48
		c-2.25,13.15-4.58,26.3-6.66,39.48c-1.06,6.68,3.04,12.32,9.51,12.75c2.73,0.18,5.83-0.85,8.33-2.15
		c23.99-12.45,47.84-25.16,71.85-37.57C175.94,297.83,180.52,296.83,185.11,295.24z"/>
</g>
</svg>
